<svg width="82" height="82" viewBox="0 0 82 82" fill="none" xmlns="http://www.w3.org/2000/svg">
<g clip-path="url(#clip0_30_561)">
<path d="M56.3716 0C52.0001 0.302373 46.8905 3.10061 43.9128 6.74446C41.1966 10.0501 38.9621 14.9598 39.8334 19.7311C44.6098 19.8798 49.5452 17.0149 52.4049 13.3095C55.0802 9.86044 57.1045 4.98147 56.3716 0Z" fill="white"/>
<path d="M73.6477 27.5109C69.4503 22.2476 63.5515 19.1931 57.9806 19.1931C50.6263 19.1931 47.5155 22.714 42.4059 22.714C37.1374 22.714 33.1348 19.2034 26.7747 19.2034C20.5274 19.2034 13.8752 23.0215 9.6573 29.5507C3.72771 38.7449 4.74245 56.0314 14.3518 70.7554C17.7906 76.0239 22.3826 81.9484 28.3891 81.9996C33.7344 82.0509 35.2412 78.571 42.4827 78.5351C49.7243 78.4941 51.0978 82.0457 56.4329 81.9894C62.4445 81.9432 67.2876 75.3782 70.7264 70.1097C73.1916 66.3326 74.1089 64.4312 76.0205 60.1672C62.1165 54.8732 59.8871 35.101 73.6477 27.5109Z" fill="white"/>
</g>
<defs>
<clipPath id="clip0_30_561">
<rect width="82" height="82" fill="white"/>
</clipPath>
</defs>
</svg>
