<svg xmlns="http://www.w3.org/2000/svg" xmlns:xlink="http://www.w3.org/1999/xlink" viewBox="0 0 109.73 30.81">
    <defs>
        <style>
            .cls-1 {
                fill: #fff;
            }

            .cls-2 {
                fill: url(#Новый_образец_градиента_19);
            }

            .cls-3 {
                fill: url(#Новый_образец_градиента_19-2);
            }

            .cls-4 {
                fill: url(#Новый_образец_градиента_19-3);
            }
        </style>
        <linearGradient id="Новый_образец_градиента_19" x1="7.24" y1="6.26" x2="20.02" y2="23.39"
            gradientUnits="userSpaceOnUse">
            <stop offset="0" stop-color="#8b6034" />
            <stop offset="0.14" stop-color="#a8824f" />
            <stop offset="0.46" stop-color="#f3d893" />
            <stop offset="0.51" stop-color="#ffe69e" />
            <stop offset="0.66" stop-color="#e2c07c" />
            <stop offset="1" stop-color="#a57033" />
        </linearGradient>
        <linearGradient id="Новый_образец_градиента_19-2" x1="10.24" y1="4.02" x2="23.02" y2="21.15"
            xlink:href="#Новый_образец_градиента_19" />
        <linearGradient id="Новый_образец_градиента_19-3" x1="14.7" y1="0.69" x2="27.48" y2="17.82"
            xlink:href="#Новый_образец_градиента_19" />
    </defs>
    <g id="Layer_2" data-name="Layer 2">
        <g id="Layer_1-2" data-name="Layer 1">
            <path class="cls-1" d="M36,21.13V9.68H45V11.5H38.16v2.87h6.05v1.82H38.16v3.12h6.89v1.82Z" />
            <path class="cls-1"
                d="M49.27,21.33a4.84,4.84,0,0,1-.86-.09,3.06,3.06,0,0,1-.91-.35,2,2,0,0,1-.73-.74,2.57,2.57,0,0,1-.29-1.29A2.42,2.42,0,0,1,47.19,17a4,4,0,0,1,1.94-.94A13.51,13.51,0,0,1,52,15.81v-.74a1.83,1.83,0,0,0-.12-.68,1,1,0,0,0-.45-.48,2.11,2.11,0,0,0-.93-.17,2.55,2.55,0,0,0-1,.15,1,1,0,0,0-.49.37.82.82,0,0,0-.14.46V15H46.93a.61.61,0,0,1,0-.15v-.21a2,2,0,0,1,1-1.79,4.63,4.63,0,0,1,2.58-.65,4,4,0,0,1,2.64.74,2.51,2.51,0,0,1,.87,2v4.19a.53.53,0,0,0,.18.45.66.66,0,0,0,.4.13h.53v1.37a2.55,2.55,0,0,1-.48.17,3.37,3.37,0,0,1-.77.08A1.8,1.8,0,0,1,52.77,21a1.55,1.55,0,0,1-.59-.86h-.11A3.21,3.21,0,0,1,51,21,3.86,3.86,0,0,1,49.27,21.33Zm.6-1.6A2.22,2.22,0,0,0,51,19.46a1.92,1.92,0,0,0,.73-.74,2.24,2.24,0,0,0,.25-1.1v-.4a11.46,11.46,0,0,0-1.73.12,3.06,3.06,0,0,0-1.25.43,1,1,0,0,0-.47.89,1,1,0,0,0,.34.79A1.55,1.55,0,0,0,49.87,19.73Z" />
            <path class="cls-1"
                d="M57.86,24.16a2.7,2.7,0,0,1-1.1-.22,2,2,0,0,1-.83-.69,1.88,1.88,0,0,1-.33-1.14,1.72,1.72,0,0,1,.2-.85,2.11,2.11,0,0,1,.52-.59,2.9,2.9,0,0,1,.65-.38,1.77,1.77,0,0,1-.62-.53,1.34,1.34,0,0,1-.25-.8,1.17,1.17,0,0,1,.23-.72,1.74,1.74,0,0,1,.58-.49,2.87,2.87,0,0,1,.71-.29,2.61,2.61,0,0,1-.92-1,2.74,2.74,0,0,1-.33-1.36,2.66,2.66,0,0,1,1-2.17,4.3,4.3,0,0,1,2.78-.8,5.13,5.13,0,0,1,1.74.27,2,2,0,0,0,.81-.78,2.14,2.14,0,0,0,.25-.74h1.94a2.13,2.13,0,0,1-.49,1.44,2.41,2.41,0,0,1-1.33.75,2.51,2.51,0,0,1,.64.9,2.78,2.78,0,0,1,.23,1.13,2.72,2.72,0,0,1-1,2.19,4.17,4.17,0,0,1-2.73.8H58.87a.86.86,0,0,0-.55.16.51.51,0,0,0,0,.8.68.68,0,0,0,.5.17h3.83a2.32,2.32,0,0,1,1.16.29,2.14,2.14,0,0,1,.8.81,2.32,2.32,0,0,1,.3,1.17,2.42,2.42,0,0,1-.39,1.35,2.61,2.61,0,0,1-1.07.95,3.55,3.55,0,0,1-1.65.35Zm.7-1.45h3.23a1.28,1.28,0,0,0,.79-.24.77.77,0,0,0,.31-.64.78.78,0,0,0-.28-.65,1,1,0,0,0-.68-.24H58.56a.92.92,0,0,0-.68.25.84.84,0,0,0-.26.64.85.85,0,0,0,.26.64A1,1,0,0,0,58.56,22.71Zm1.6-6a1.92,1.92,0,0,0,1.34-.41,1.48,1.48,0,0,0,.44-1.16A1.48,1.48,0,0,0,61.5,14a2.39,2.39,0,0,0-2.68,0,1.48,1.48,0,0,0-.45,1.16,1.48,1.48,0,0,0,.45,1.16A1.92,1.92,0,0,0,60.16,16.69Z" />
            <path class="cls-1" d="M66.28,21.13V9.07h2V21.13Z" />
            <path class="cls-1"
                d="M74.25,21.33a4.15,4.15,0,0,1-3.16-1.11,5,5,0,0,1-1-3.48,4.93,4.93,0,0,1,1-3.48,4.14,4.14,0,0,1,3.15-1.11,3.71,3.71,0,0,1,2.88,1.07,5,5,0,0,1,1,3.4v.6h-6a3.16,3.16,0,0,0,.54,1.9,2,2,0,0,0,1.65.62,2.39,2.39,0,0,0,.94-.18,1.54,1.54,0,0,0,.68-.55,1.72,1.72,0,0,0,.25-1h2a3.12,3.12,0,0,1-.51,1.84A3.07,3.07,0,0,1,76.21,21,5.27,5.27,0,0,1,74.25,21.33Zm-2.13-5.52H76a2.19,2.19,0,0,0-.48-1.59,1.76,1.76,0,0,0-1.29-.48,2.06,2.06,0,0,0-1.51.51A2.53,2.53,0,0,0,72.12,15.81Z" />
            <path class="cls-1"
                d="M84.53,21.13V9.68h6.2a3.63,3.63,0,0,1,1.64.36,2.87,2.87,0,0,1,1.13,1,2.82,2.82,0,0,1-.12,3.14,2.83,2.83,0,0,1-1.33.95v.07a2.71,2.71,0,0,1,1.57.93A2.79,2.79,0,0,1,94.24,18a3.12,3.12,0,0,1-.47,1.78,2.75,2.75,0,0,1-1.27,1,4.4,4.4,0,0,1-1.77.35Zm2.13-6.76h3.51A1.59,1.59,0,0,0,91.33,14a1.37,1.37,0,0,0,.4-1,1.38,1.38,0,0,0-.4-1.09,1.47,1.47,0,0,0-1-.36H86.66Zm0,4.94h3.79a1.69,1.69,0,0,0,1.15-.39,1.46,1.46,0,0,0,.45-1.18,1.58,1.58,0,0,0-.42-1.15,1.76,1.76,0,0,0-1.3-.43H86.66Z" />
            <path class="cls-1"
                d="M100,21.33a4.33,4.33,0,0,1-3.24-1.11,4.84,4.84,0,0,1-1.08-3.48,4.84,4.84,0,0,1,1.08-3.48,5.27,5.27,0,0,1,6.47,0,4.84,4.84,0,0,1,1.09,3.48,4.84,4.84,0,0,1-1.09,3.48A4.35,4.35,0,0,1,100,21.33Zm0-1.64a2,2,0,0,0,1.72-.7,3.55,3.55,0,0,0,.53-2.13v-.24a3.53,3.53,0,0,0-.53-2.13,2,2,0,0,0-1.72-.7,2,2,0,0,0-1.74.7,3.62,3.62,0,0,0-.51,2.13v.24A3.64,3.64,0,0,0,98.27,19,2,2,0,0,0,100,19.69Z" />
            <path class="cls-1"
                d="M108.33,21.33a2.19,2.19,0,0,1-1.28-.33,1.83,1.83,0,0,1-.64-.82,3,3,0,0,1-.18-1V14h-1.07V12.35h1.1l.37-2.45h1.6v2.45h1.5V14h-1.5v5q0,.75.72.75h.78v1.37a3.09,3.09,0,0,1-.65.18A3.47,3.47,0,0,1,108.33,21.33Z" />
            <path class="cls-2"
                d="M16.19,3.54a.85.85,0,0,1,1.65.06.85.85,0,1,1-1.68.17v0C5.57,4.14,0,8.84,0,8.85H0s18.2-6.32,19,1.42c0,0-.05-.25-1.87-.65s-1.56-2-3.95-1.16c0,0,1.35,0,1.64.52a1.06,1.06,0,0,0,1.08,1.29c1.33.08,4.07-.18,5.84,1.87s-1.16,4.49-1.16,4.49a4.23,4.23,0,0,0-1.55-1.73,5.14,5.14,0,0,0-5.79.1,4.4,4.4,0,0,0-1.76,5.08c.61,2.55,7,7.05,12.58,3.92a.85.85,0,1,1,.88.39.86.86,0,0,1-.7-.19c-1.43,1.6-5.61,5.49-11.77,4.62C4.71,27.72-.14,23,1.36,14.43a.85.85,0,0,0-.06-1.7.85.85,0,0,0-.49,1.56v0A11.83,11.83,0,0,0,5.06,28,15.32,15.32,0,0,0,14,30.81,15.41,15.41,0,1,0,3.55,4,34.56,34.56,0,0,1,16.19,3.54ZM1,13.58a.3.3,0,0,1,.3-.31.31.31,0,0,1,.31.31.3.3,0,0,1-.31.3A.29.29,0,0,1,1,13.58Z" />
            <path class="cls-3" d="M24.81,23.85a.3.3,0,0,0,0-.6.3.3,0,1,0,0,.6Z" />
            <path class="cls-4" d="M16.7,3.77a.31.31,0,0,0,.31.31.31.31,0,0,0,0-.61A.31.31,0,0,0,16.7,3.77Z" />
        </g>
    </g>
</svg>