<svg width="1027" height="1249" viewBox="0 0 1027 1249" fill="none" xmlns="http://www.w3.org/2000/svg">
<rect width="177.185" height="650.687" transform="matrix(-0.190959 -0.981598 0.604946 -0.796267 228.824 748.809)" fill="url(#paint0_linear_0_3)"/>
<rect width="177.185" height="650.687" transform="matrix(-0.190959 -0.981598 0.604946 -0.796267 133.269 1046.33)" fill="url(#paint1_linear_0_3)"/>
<rect width="177.185" height="650.688" transform="matrix(-0.190959 -0.981598 0.604946 -0.796267 304.898 785.192)" fill="url(#paint2_linear_0_3)"/>
<rect width="177.185" height="650.688" transform="matrix(-0.190959 -0.981598 0.604946 -0.796267 209.345 1082.71)" fill="url(#paint3_linear_0_3)"/>
<rect width="177.185" height="650.688" transform="matrix(-0.190959 -0.981598 0.604945 -0.796267 380.975 821.576)" fill="url(#paint4_linear_0_3)"/>
<rect width="177.185" height="650.688" transform="matrix(-0.190959 -0.981598 0.604945 -0.796267 285.421 1119.09)" fill="url(#paint5_linear_0_3)"/>
<rect width="177.185" height="650.688" transform="matrix(-0.190959 -0.981598 0.604945 -0.796267 457.049 857.96)" fill="url(#paint6_linear_0_3)"/>
<rect width="177.185" height="650.688" transform="matrix(-0.190959 -0.981598 0.604946 -0.796267 361.498 1155.48)" fill="url(#paint7_linear_0_3)"/>
<rect width="177.185" height="650.688" transform="matrix(-0.190959 -0.981598 0.604946 -0.796267 533.127 894.344)" fill="url(#paint8_linear_0_3)"/>
<rect width="177.185" height="650.688" transform="matrix(-0.190959 -0.981598 0.604946 -0.796267 437.574 1191.86)" fill="url(#paint9_linear_0_3)"/>
<defs>
<linearGradient id="paint0_linear_0_3" x1="88.5926" y1="-68.6836" x2="88.5926" y2="650.687" gradientUnits="userSpaceOnUse">
<stop stop-color="#EBCB79" stop-opacity="0"/>
<stop offset="0.473958" stop-color="#FF9900"/>
<stop offset="1" stop-color="#BD7020" stop-opacity="0"/>
</linearGradient>
<linearGradient id="paint1_linear_0_3" x1="88.5926" y1="-68.6836" x2="88.5926" y2="650.687" gradientUnits="userSpaceOnUse">
<stop stop-color="white" stop-opacity="0"/>
<stop offset="0.473958" stop-color="#9E00FF"/>
<stop offset="1" stop-color="white" stop-opacity="0"/>
</linearGradient>
<linearGradient id="paint2_linear_0_3" x1="88.5926" y1="-68.6837" x2="88.5926" y2="650.688" gradientUnits="userSpaceOnUse">
<stop stop-color="#EBCB79" stop-opacity="0"/>
<stop offset="0.473958" stop-color="#FF9900"/>
<stop offset="1" stop-color="#BD7020" stop-opacity="0"/>
</linearGradient>
<linearGradient id="paint3_linear_0_3" x1="88.5926" y1="-68.6837" x2="88.5926" y2="650.688" gradientUnits="userSpaceOnUse">
<stop stop-color="white" stop-opacity="0"/>
<stop offset="0.473958" stop-color="#9E00FF"/>
<stop offset="1" stop-color="white" stop-opacity="0"/>
</linearGradient>
<linearGradient id="paint4_linear_0_3" x1="88.5926" y1="-68.6837" x2="88.5926" y2="650.688" gradientUnits="userSpaceOnUse">
<stop stop-color="#EBCB79" stop-opacity="0"/>
<stop offset="0.473958" stop-color="#FF9900"/>
<stop offset="1" stop-color="#BD7020" stop-opacity="0"/>
</linearGradient>
<linearGradient id="paint5_linear_0_3" x1="88.5926" y1="-68.6837" x2="88.5926" y2="650.688" gradientUnits="userSpaceOnUse">
<stop stop-color="white" stop-opacity="0"/>
<stop offset="0.473958" stop-color="#9E00FF"/>
<stop offset="1" stop-color="white" stop-opacity="0"/>
</linearGradient>
<linearGradient id="paint6_linear_0_3" x1="88.5926" y1="-68.6837" x2="88.5926" y2="650.688" gradientUnits="userSpaceOnUse">
<stop stop-color="#EBCB79" stop-opacity="0"/>
<stop offset="0.473958" stop-color="#FF9900"/>
<stop offset="1" stop-color="#BD7020" stop-opacity="0"/>
</linearGradient>
<linearGradient id="paint7_linear_0_3" x1="88.5926" y1="-68.6837" x2="88.5926" y2="650.688" gradientUnits="userSpaceOnUse">
<stop stop-color="white" stop-opacity="0"/>
<stop offset="0.473958" stop-color="#9E00FF"/>
<stop offset="1" stop-color="white" stop-opacity="0"/>
</linearGradient>
<linearGradient id="paint8_linear_0_3" x1="88.5926" y1="-68.6837" x2="88.5926" y2="650.688" gradientUnits="userSpaceOnUse">
<stop stop-color="#EBCB79" stop-opacity="0"/>
<stop offset="0.473958" stop-color="#FF9900"/>
<stop offset="1" stop-color="#BD7020" stop-opacity="0"/>
</linearGradient>
<linearGradient id="paint9_linear_0_3" x1="88.5926" y1="-68.6837" x2="88.5926" y2="650.688" gradientUnits="userSpaceOnUse">
<stop stop-color="white" stop-opacity="0"/>
<stop offset="0.473958" stop-color="#9E00FF"/>
<stop offset="1" stop-color="white" stop-opacity="0"/>
</linearGradient>
</defs>
</svg>
